<svg width="533" height="289" viewBox="0 0 533 289" fill="none" xmlns="http://www.w3.org/2000/svg">
<path d="M86.6146 112.591C73.9546 114.819 73.9893 121.881 73.9893 121.881C73.9893 121.881 65.3866 118.249 57.584 120.163C49.624 122.112 56.7973 130.287 56.7973 130.287C42.5507 132.217 49.584 144.096 49.584 144.096C35.436 148.151 29.6066 158.352 34.648 168.117C39.6413 177.795 50.2453 174.139 50.2453 174.139C50.2453 174.139 50.9293 181.232 58.2133 187.7C65.3827 194.073 72.6934 187.307 72.6934 187.307C73.756 193.124 84.5333 194.383 89.8547 189.525L117.075 151.009C125.651 137.749 94.0626 111.279 86.6146 112.591Z" fill="#FAD356"/>
<path d="M83.4333 155.555C67.1307 151.78 54.5613 142.623 50.3253 132.665C45.2347 136.744 49.584 144.096 49.584 144.096C35.436 148.151 29.6066 158.352 34.648 168.117C39.6413 177.795 50.2453 174.139 50.2453 174.139C50.2453 174.139 50.9293 181.232 58.2133 187.7C65.3827 194.073 72.6934 187.307 72.6934 187.307C73.756 193.124 84.5333 194.383 89.8547 189.525L106.045 156.72C99.1853 157.707 91.4067 157.401 83.4333 155.555" fill="#ECC64F"/>
<path d="M105.799 206.35C108.803 206.46 117.67 198.154 122.459 194.073L121.938 192.967C121.938 192.967 109.159 203.38 106.355 203.542C103.55 203.709 91.5633 197.129 91.5633 197.129L88.498 199.796C88.498 199.796 102.794 206.238 105.799 206.35" fill="#FFCD9C"/>
<path d="M107.034 203.38C106.771 203.48 106.541 203.533 106.355 203.543C103.55 203.709 91.5633 197.129 91.5633 197.129L88.498 199.796C88.498 199.796 102.794 206.239 105.799 206.351C106.354 206.371 107.113 206.103 108.007 205.623C107.622 204.923 107.295 204.174 107.034 203.38" fill="#FFAE85"/>
<path d="M103.612 201.411L99.4054 209.236C99.4054 209.236 84.1293 200.783 84.356 198.87C84.5827 196.958 89.3134 194.508 90.9334 195.523C92.5507 196.538 103.612 201.411 103.612 201.411" fill="#5298CC"/>
<path d="M96.1187 202.919C91.04 200.716 87.472 197.622 87.7934 195.794C86.1227 196.486 84.488 197.764 84.356 198.87C84.1293 200.783 99.4054 209.236 99.4054 209.236L101.824 204.731C100.109 204.407 98.1387 203.796 96.1187 202.919" fill="#3C83AF"/>
<path d="M91.226 242.004L106.706 269.952L108.002 269.762L95.662 240.065C94.2807 236.368 89.1007 238.114 91.226 242.004" fill="#FFCD9C"/>
<path d="M99.698 249.788L95.662 240.065C94.2807 236.368 89.1007 238.114 91.226 242.004L98.9273 255.908C98.978 253.576 99.2487 251.495 99.698 249.788" fill="#FFAE85"/>
<path d="M91.658 248.859C91.89 249.151 98.4927 244.684 98.4927 244.684C98.4927 244.684 90.5994 226.62 90.238 225.447C89.8767 224.279 80.0874 224.354 80.0874 224.354C80.0874 224.354 74.9114 228.046 91.658 248.859Z" fill="#FF8D40"/>
<path d="M92.0753 242.644C89.778 237.348 90.4354 231.699 92.0994 231.025C92.2354 230.971 92.3847 230.953 92.5393 230.959C91.314 228.108 90.358 225.84 90.238 225.447C89.8767 224.279 80.0874 224.353 80.0874 224.353C80.0874 224.353 74.9114 228.045 91.658 248.859C91.766 248.995 93.2807 248.081 94.858 247.073C93.8167 245.883 92.8313 244.395 92.0753 242.644" fill="#F26330"/>
<path d="M99.3531 245.287L98.3745 243.195L89.9238 247.844L91.9798 249.917L99.3531 245.287" fill="#FFD6BB"/>
<path d="M93.8771 245.668L89.9238 247.844L91.9798 249.917L95.5025 247.704C94.7705 247.183 94.1998 246.489 93.8771 245.668" fill="#D69D80"/>
<path d="M92.9066 251.007L83.816 232.016L80.8213 234.679L89.116 252.547C90.7319 255.351 94.3919 254.42 92.9066 251.007Z" fill="#FFAE85"/>
<path d="M85.2369 250.125C85.4583 250.416 92.213 245.972 92.213 245.972C92.213 245.972 85.1663 228.052 84.8623 226.892C84.5557 225.727 74.8223 225.82 74.8223 225.82C74.8223 225.82 69.5209 229.488 85.2369 250.125" fill="#FF8D40"/>
<path d="M85.181 245.011C82.5516 239.067 83.9783 232.625 86.101 231.747C86.2677 231.684 86.4437 231.655 86.629 231.645C85.6743 229.159 85.5263 226.851 85.4343 226.493C85.1263 225.331 74.8223 225.82 74.8223 225.82C74.8223 225.82 69.5209 229.488 85.2369 250.125C85.3236 250.235 86.353 249.656 87.6023 248.904C86.6716 247.785 85.8316 246.485 85.181 245.011" fill="#F26330"/>
<path d="M92.4587 199.966C93.9693 196.443 87.3493 190.566 82.5893 194.998C74.7973 202.266 73.4907 218.42 71.6934 228.754C79.2694 230.072 87.1147 231.259 93.7627 228.856C89.1654 215.766 89.6933 206.411 92.4587 199.966Z" fill="#5298CC"/>
<path d="M83.3379 217.217C81.8872 207.949 83.0099 199.405 85.9072 193.877C84.6446 193.836 83.4872 194.165 82.5885 194.997C74.7965 202.265 72.5792 218.641 70.7832 228.977C76.0459 229.887 81.8739 230.632 87.1739 230.195C85.4326 226.432 84.0846 222.017 83.3379 217.217Z" fill="#3C83AF"/>
<path d="M63.6339 200.687C60.8219 202.525 59.3739 214.715 57.4912 221.08L58.3392 221.491C58.3392 221.491 63.6605 204.901 66.1192 202.967C68.5792 201.039 83.5445 198.655 83.5445 198.655L84.7139 194.533C84.7139 194.533 66.4513 198.847 63.6339 200.687" fill="#FFCD9C"/>
<path d="M63.634 200.687C63.386 200.85 63.1433 201.091 62.9033 201.398C63.69 202.202 64.4407 203.159 65.126 204.244C65.4927 203.647 65.8273 203.2 66.1193 202.967C68.5793 201.039 83.5447 198.655 83.5447 198.655L84.714 194.534C84.714 194.534 66.4514 198.847 63.634 200.687Z" fill="#FFAE85"/>
<path d="M69.0436 205.339L67.5049 196.551C67.5049 196.551 86.7422 192.787 87.8289 194.401C88.9129 196.009 86.3676 201.047 84.2516 201.355C82.1329 201.664 69.0436 205.339 69.0436 205.339Z" fill="#5298CC"/>
<path d="M89.0906 201.761C87.4933 198.385 86.0932 195.289 83.5732 194.1C83.5732 194.1 86.2012 192.296 88.8452 193.699C92.1546 195.452 89.0906 201.761 89.0906 201.761Z" fill="#9ACDED"/>
<path d="M70.5995 199.484C70.3702 198.012 72.1849 196.421 75.1329 195.201C71.0209 195.865 67.5049 196.551 67.5049 196.551L69.0436 205.339C69.0436 205.339 75.4515 203.539 80.0249 202.354C74.9102 202.619 70.9129 201.486 70.5995 199.484" fill="#3C83AF"/>
<path d="M105.511 271.085L111.843 270.161C111.843 270.161 107.836 268.268 106.879 268.479C105.923 268.695 105.511 271.085 105.511 271.085Z" fill="#9FA221"/>
<path d="M85.2041 193.76L86.7721 187.374L91.1588 188.21L89.3081 198.868C88.1281 195.74 87.0708 194.677 85.2041 193.76Z" fill="#FFCD9C"/>
<path d="M92.6791 246.045L91.7018 243.955L83.2471 248.605L85.3057 250.677L92.6791 246.045Z" fill="#FFD6BB"/>
<path d="M87.2005 246.429L83.2471 248.605L85.3057 250.677L88.5044 248.672C87.8671 248.089 87.4031 247.324 87.2005 246.429Z" fill="#D69D80"/>
<path d="M90.0401 250.457L70.8428 266.947L71.7988 267.084L92.1508 254.776C94.7668 253.24 92.6108 248.267 90.0401 250.457" fill="#FFCD9C"/>
<path d="M92.9213 254.043C94.208 252.091 92.244 248.295 90.0013 250.206L82.3359 257.072C86.1213 255.45 89.7986 254.427 92.9213 254.043" fill="#FFAE85"/>
<path d="M99.5702 209.669L104.136 201.339L102.366 200.111L97.3916 209.104L99.5702 209.669" fill="#9ACDED"/>
<path d="M100.082 204.235L97.3916 209.104L99.5702 209.669L102.226 204.827C101.44 204.703 100.717 204.5 100.082 204.235" fill="#82BBD8"/>
<path d="M70.8544 205.322L68.8984 195.636L66.6797 195.659L68.757 206.142L70.8544 205.322" fill="#9ACDED"/>
<path d="M67.6338 200.468L68.7564 206.142L70.8538 205.322L69.7178 199.691C69.0151 200.055 68.3098 200.314 67.6338 200.468" fill="#82BBD8"/>
<path d="M94.0025 197.062C92.8558 196.523 91.8878 196.052 91.3105 195.74C91.2398 195.66 91.1678 195.581 91.0918 195.504C91.1651 195.579 91.2358 195.655 91.3051 195.732C91.8771 196.043 92.8518 196.519 94.0025 197.061V197.062Z" fill="#DDAAA0"/>
<path d="M92.5906 201.109C92.4292 201.011 92.2692 200.913 92.1145 200.815C92.2252 200.525 92.3399 200.243 92.4585 199.965C93.0159 198.665 92.4652 197.044 91.3105 195.74C91.8879 196.052 92.8559 196.523 94.0025 197.063C93.7439 198.519 93.2666 199.935 92.5906 201.109" fill="#476580"/>
<path d="M91.5166 202.572C91.6979 201.964 91.8979 201.379 92.1139 200.815C92.2686 200.914 92.4286 201.011 92.59 201.11C92.2753 201.656 91.9166 202.151 91.5166 202.572" fill="#34576E"/>
<path d="M90.0462 194.615L91.1581 188.209L90.0462 194.615ZM81.9248 194.257C82.4981 194.195 83.0515 194.141 83.5728 194.1C83.5741 194.1 83.5755 194.1 83.5755 194.1C83.0541 194.143 82.4995 194.195 81.9248 194.257ZM85.3008 193.351L85.6635 191.875C85.6648 191.875 85.6648 191.875 85.6661 191.875L85.3035 193.349C85.3035 193.349 85.3022 193.349 85.3008 193.351" fill="#DDAAA0"/>
<path d="M85.6631 191.875L86.7711 187.374L85.6658 191.875C85.6644 191.875 85.6644 191.875 85.6631 191.875Z" fill="#75231F"/>
<path d="M88.2824 204.076C88.2144 204.076 88.1463 204.075 88.0783 204.072C86.4637 203.994 85.041 202.903 83.749 201.448C83.953 201.406 84.1224 201.375 84.2517 201.355C85.349 201.195 86.5624 199.763 87.3237 198.198C87.9304 199.291 88.497 200.507 89.0904 201.762C89.0904 201.762 91.233 197.349 89.9997 194.88L90.0464 194.615V194.619C90.425 194.885 90.777 195.183 91.0917 195.504C91.1677 195.582 91.2397 195.66 91.3104 195.74C92.465 197.044 93.0157 198.665 92.4583 199.965C92.3397 200.243 92.225 200.526 92.1143 200.815C91.8983 201.379 91.6983 201.964 91.517 202.572C90.6343 203.502 89.5504 204.076 88.2824 204.076" fill="#476580"/>
<path d="M83.7488 201.448C81.8368 199.294 80.2088 196.338 78.6621 194.67C79.7834 194.512 80.8887 194.37 81.9247 194.258C82.4994 194.195 83.0541 194.143 83.5754 194.1C85.1581 194.85 86.2981 196.35 87.3234 198.198C86.5621 199.763 85.3488 201.195 84.2514 201.355C84.1221 201.375 83.9528 201.406 83.7488 201.448" fill="#476580"/>
<path d="M89.0906 201.761C88.4973 200.507 87.9306 199.291 87.324 198.197C86.2986 196.349 85.1586 194.849 83.5759 194.1C83.5759 194.1 83.5746 194.1 83.5732 194.1C83.5732 194.1 84.2706 193.625 85.3013 193.351C85.3026 193.349 85.3039 193.349 85.3039 193.349L85.2039 193.76C87.0706 194.677 88.1279 195.74 89.3079 198.868L89.9999 194.88C91.2333 197.349 89.0906 201.761 89.0906 201.761" fill="#868995"/>
<path d="M89.3081 198.868C88.1281 195.74 87.0708 194.677 85.2041 193.76L85.3041 193.349L85.6668 191.875L86.7721 187.374L91.1588 188.21L90.0468 194.615L90.0001 194.88L89.3081 198.868" fill="#DD8962"/>
<path d="M101.525 193.04C125.385 187.963 117.881 173.028 117.015 149.606C116.407 133.174 94.1801 133.45 82.1108 140.495C70.0401 147.539 62.4308 159.97 73.4308 179.054C82.0068 193.926 95.8788 194.242 101.525 193.04" fill="#FFCD9C"/>
<path d="M81.1921 130.636C87.8974 133.759 86.4814 147.108 80.7041 154.9C74.9987 162.605 76.8881 171.801 78.6988 178.827C79.8735 183.392 77.0134 186.313 78.7028 190.135C78.7028 190.135 54.3174 170.099 57.8534 152.084C61.3867 134.067 71.4187 126.087 81.1921 130.636Z" fill="#E2BF4C"/>
<path d="M75.0864 184.672C72.7744 180.247 72.9864 174.773 77.645 176.38C82.3024 177.991 86.1344 186.284 83.4077 187.659C80.6824 189.039 76.793 187.936 75.0864 184.672" fill="#FFCD9C"/>
<path d="M76.7729 184.114C75.4262 181.539 75.5462 178.355 78.2542 179.291C80.9622 180.224 83.1916 185.048 81.6102 185.85C80.0249 186.654 77.7675 186.011 76.7729 184.114" fill="#EF8F6F"/>
<path d="M79.4653 185.687C78.4559 183.757 78.5439 181.373 80.5759 182.077C82.6106 182.78 84.288 186.399 83.1013 186.996C81.9133 187.595 80.2133 187.112 79.4653 185.687" fill="#FFCD9C"/>
<path d="M84.3859 131.729C80.8459 124.379 73.0913 122.835 67.0633 128.276C61.0393 133.721 59.0233 144.092 62.5647 151.443C66.1047 158.795 73.8593 160.34 79.8833 154.895C85.9139 149.452 87.9299 139.084 84.3859 131.729" fill="#FAD356"/>
<path d="M71.6392 263.775L70.0059 269.766C70.0059 269.766 73.3912 266.958 73.5699 266.024C73.7405 265.094 71.6392 263.775 71.6392 263.775Z" fill="#9FA221"/>
<path d="M115.792 163.5C115.514 159.324 112.978 156.319 110.133 156.787C107.292 157.251 105.204 161.015 105.478 165.193C105.76 169.364 108.633 169.545 111.478 169.076C114.321 168.607 116.066 167.672 115.792 163.5" fill="#EF8F6F"/>
<path d="M97.9431 163.649C97.7845 158.999 95.0165 155.621 91.7618 156.104C88.5111 156.591 86.0018 160.752 86.1604 165.407C86.3191 170.059 89.2751 170.489 92.5271 170.005C95.7791 169.519 98.1005 168.304 97.9431 163.649Z" fill="#EF8F6F"/>
<path d="M115.822 163.967C115.569 160.145 113.054 157.432 110.212 157.897C107.362 158.365 105.256 161.839 105.509 165.656C105.764 169.476 108.11 169.707 111.005 169.88C114.301 170.081 116.077 167.783 115.822 163.967" fill="#FFF9E9"/>
<path d="M97.7853 164.195C97.6373 159.943 94.8813 156.886 91.628 157.371C88.3786 157.856 85.8599 161.702 86.0039 165.954C86.1479 170.211 88.7533 170.546 92.0839 170.723C95.3853 170.904 97.928 168.456 97.7853 164.195Z" fill="#FFF9E9"/>
<path d="M95.2208 179.012C95.1781 178.713 108.719 178.472 108.647 178.74C108.126 180.643 106.517 184.46 101.935 184.865C96.8301 185.315 95.5221 181.203 95.2208 179.012Z" fill="#542C23"/>
<path d="M96.5343 179.255C96.4863 179.12 107.249 178.944 107.192 179.067C106.785 179.965 107.337 183.705 101.742 183.98C95.3303 184.288 96.8757 180.251 96.5343 179.255" fill="#FFF7E9"/>
<path d="M101.875 175.216C100.413 174.951 99.5154 174.059 99.6181 173.144C99.4128 173.323 99.2448 173.526 99.1568 173.751C98.7528 174.79 99.7567 175.858 101.394 176.154C103.031 176.452 104.683 175.866 105.087 174.834L105.106 174.51C104.403 175.139 103.15 175.447 101.875 175.216" fill="#EF8F6F"/>
<path d="M115.496 162.147C115.09 160.749 113.869 159.962 112.749 160.403C111.636 160.84 111.056 162.335 111.464 163.739C111.86 165.136 113.092 165.927 114.209 165.488C115.325 165.046 115.896 163.552 115.496 162.147" fill="#5795AA"/>
<path d="M97.1183 162.944C96.7303 161.379 95.3636 160.49 94.0662 160.944C92.7689 161.404 92.0329 163.044 92.4209 164.604C92.8129 166.167 94.1716 167.058 95.4636 166.603C96.7676 166.144 97.5036 164.504 97.1183 162.944" fill="#5795AA"/>
<path d="M96.4862 163.339C96.3395 162.764 95.8329 162.434 95.3555 162.6C94.8782 162.771 94.6022 163.377 94.7462 163.96C94.8876 164.537 95.3982 164.871 95.8769 164.701C96.3556 164.532 96.6302 163.924 96.4862 163.339Z" fill="#78C7DD"/>
<path d="M114.727 162.157C114.575 161.636 114.125 161.352 113.713 161.512C113.302 161.672 113.086 162.221 113.234 162.743C113.384 163.26 113.834 163.556 114.246 163.391C114.665 163.225 114.875 162.672 114.727 162.157" fill="#78C7DD"/>
<path d="M96.7714 154.753C91.8288 153.469 86.2968 156.279 85.2954 157.323L83.7314 155.731C85.5368 153.876 92.0514 151.005 97.5514 152.439L96.7714 154.753" fill="#AC6048"/>
<path d="M117.1 156.485C114.103 153.256 109.297 153.393 108.259 153.887L107.704 151.828C109.608 150.948 115.095 151.187 118.427 154.771L117.1 156.485Z" fill="#AC6048"/>
<path d="M124.099 195.912C124.907 196.013 125.869 195.892 126.029 195.573C126.168 195.305 125.449 195.397 124.924 195.245C124.457 195.12 124.288 195.08 124.368 194.96C124.416 194.881 125.08 194.939 125.832 194.969C126.765 195.012 127.427 194.905 127.58 194.587C127.708 194.283 127.057 194.393 126.251 194.269C125.544 194.159 125.207 194.155 125.347 193.843C125.405 193.693 125.907 193.712 126.721 193.612C127.656 193.489 128.273 193.217 128.312 192.971C128.36 192.62 127.881 192.935 126.851 192.937C125.473 192.951 125.065 193.148 124.555 192.671C124.076 192.228 126.781 191.643 126.459 191.172C126.025 190.555 121.201 192.789 120.816 193.736C120.257 195.112 121.535 195.585 124.099 195.912" fill="#FFCD9C"/>
<path d="M54.5823 220.475C53.7783 220.627 52.905 221.039 52.853 221.39C52.8183 221.688 53.4676 221.38 54.0143 221.36C54.5036 221.338 54.6756 221.322 54.6423 221.46C54.6183 221.547 53.9703 221.703 53.249 221.902C52.345 222.147 51.7556 222.455 51.7116 222.799C51.6916 223.128 52.2743 222.822 53.0823 222.695C53.7863 222.578 54.1063 222.483 54.0797 222.82C54.0757 222.98 53.5903 223.111 52.849 223.463C52.0063 223.863 51.5063 224.311 51.5517 224.558C51.6223 224.904 51.977 224.462 52.9517 224.14C54.2557 223.706 54.5743 223.394 55.221 223.682C55.821 223.958 53.4476 225.351 53.909 225.692C54.5263 226.146 58.3663 222.54 58.421 221.523C58.4917 220.05 57.1237 219.995 54.5823 220.475" fill="#FFCD9C"/>
<path d="M217.812 239.583C237.785 258.779 284.997 255.926 317.421 238.546C317.421 238.546 294.853 255.147 262.169 255.926C228.408 256.73 217.812 239.583 217.812 239.583" fill="#767818"/>
<path d="M171.67 179.317L161.017 272.544H167.942L174.867 179.317H171.67Z" fill="#5D5F11"/>
<path d="M399.674 179.317L410.329 272.544H403.404L396.479 179.317H399.674" fill="#5D5F11"/>
<path d="M146.11 185.482C146.11 185.482 186.481 238.926 253.674 242.034C322.794 245.23 399.32 184.428 399.32 184.428L146.11 185.482" fill="#767818"/>
<path d="M143.438 182.513C143.438 182.513 186.481 234.131 253.674 237.239C322.794 240.435 403.537 181.715 403.537 181.715L143.438 182.513Z" fill="#767818"/>
<path d="M163.679 201.511C182.612 216.575 213.925 237.392 253.688 239.232C314.356 242.038 383.956 195.155 400.076 184.134C319.539 221.283 243.348 238.375 163.679 201.511Z" fill="#9FA221"/>
<path d="M371.708 179.317L382.361 272.544H375.437L368.511 179.317H371.708" fill="#9FA221"/>
<path d="M375.784 214.989L371.708 179.317H368.511L371.787 223.416C372.969 219.899 374.316 217.037 375.784 214.989Z" fill="#5D5F11"/>
<path d="M144.103 179.317L133.447 272.544H140.374L147.299 179.317H144.103" fill="#9FA221"/>
<path d="M144.038 223.224L147.3 179.317H144.104L140.245 213.076C141.721 215.588 143.01 219.057 144.038 223.224Z" fill="#5D5F11"/>
<path d="M413.922 180.625C414.018 176.764 380.956 183.445 266.924 182.737C152.89 182.029 123.262 174.96 123.166 178.82C123.07 182.68 152.542 196.905 266.576 197.612C380.609 198.321 413.826 184.485 413.922 180.625Z" fill="#696B15"/>
<path d="M418.262 177.803C418.358 173.941 384.314 180.599 266.877 179.805C149.44 179.013 118.922 171.921 118.826 175.781C118.729 179.641 149.092 192.992 266.529 193.785C383.966 194.577 418.166 181.663 418.262 177.803Z" fill="#CAAA46"/>
<path d="M122.288 174.657C143.464 179.601 186.548 185.027 266.379 185.691C348.593 186.376 393.532 181.375 415.277 176.669C404.805 175.941 365.015 179.696 267.005 179.035C171.06 178.387 133.009 174.307 122.288 174.657" fill="#FAD356"/>
<path d="M368.489 183.029C368.489 184.427 369.621 185.56 371.019 185.56C372.416 185.56 373.549 184.427 373.549 183.029C373.549 181.632 372.416 180.499 371.019 180.499C369.621 180.499 368.489 181.632 368.489 183.029Z" fill="#5B314B"/>
<path d="M142.349 180.899C142.349 182.296 143.482 183.429 144.881 183.429C146.277 183.429 147.41 182.296 147.41 180.899C147.41 179.501 146.277 178.368 144.881 178.368C143.482 178.368 142.349 179.501 142.349 180.899Z" fill="#5B314B"/>
<path d="M350.819 30.7042C352.459 35.6442 351.649 40.4642 347.516 46.9708C342.309 55.1682 344.381 63.5428 352.055 79.5068L355.836 46.6628C356.88 35.4802 350.819 30.7042 350.819 30.7042Z" fill="#FF6A36"/>
<path d="M368.916 103.942L328.813 96.1588L328.508 97.3161L367.386 109.085L368.916 103.942" fill="#FFB882"/>
<path d="M354.114 101.068C352.656 102.053 350.445 102.757 347.716 103.131L367.386 109.085L368.916 103.942L354.114 101.068Z" fill="#FF9566"/>
<path d="M372.392 114.572L356.697 114.451L359.992 100.1L376.375 102.647L372.392 114.572Z" fill="#9FA221"/>
<path d="M357.733 109.932L356.697 114.451L371.997 115.949L374.219 109.1C369.372 110.976 362.909 111.296 357.733 109.932" fill="#7D8019"/>
<path d="M342.988 128.281L302.201 125.992L302.06 127.151L342.168 133.584L342.988 128.281" fill="#FFB882"/>
<path d="M327.346 127.404C326.001 128.481 324.118 129.483 321.854 130.325L342.168 133.584L342.988 128.281L327.346 127.404" fill="#FF9566"/>
<path d="M342.581 138.285L298.356 136.011L298.045 137L341.788 143.296L342.581 138.285Z" fill="#FFB882"/>
<path d="M329.567 137.616C328.646 138.795 327.457 139.943 326.038 141.029L341.787 143.296L342.581 138.285L329.567 137.616" fill="#FF9566"/>
<path d="M371.001 137.972C371.001 137.972 360.051 147.603 338.792 158.529L334.657 123.825C334.657 123.825 355.476 119.488 359.528 119.491C363.581 119.495 374.991 130.708 371.001 137.972Z" fill="#FAD356"/>
<path d="M359.527 119.491C357.618 119.489 351.993 120.451 346.571 121.468C355.193 139.333 342.446 150.291 337.983 151.748L338.791 158.529C360.05 147.603 371.001 137.972 371.001 137.972C374.99 130.708 363.581 119.495 359.527 119.491Z" fill="#E0BD4D"/>
<path d="M347.626 120.491L361.694 145.704C361.694 145.704 387.662 130.883 389.281 111.779C389.765 106.093 384.206 103.617 380.802 103.068C376.287 102.339 371.867 101.8 370.849 104.667C368.233 112.039 362.657 118.331 347.626 120.491" fill="#9FA221"/>
<path d="M386.353 111.393C382.953 116.453 379.384 126.565 358.402 139.804L361.694 145.704C361.694 145.704 389.236 130.568 390.857 111.464C391.197 107.459 389.145 112.661 386.353 111.393Z" fill="#7D8019"/>
<path d="M393.066 108.419L425.493 83.5843L424.421 81.9763L390.231 103.863L393.066 108.419" fill="#FFB882"/>
<path d="M401.445 101.203C400.632 100.211 400.699 98.611 401.459 96.675L390.231 103.863L393.066 108.419L401.921 101.638C401.743 101.512 401.582 101.37 401.445 101.203" fill="#FF9566"/>
<path d="M383.823 105.076L396.166 99.1109L400.423 113.206L383.283 119.766L383.823 105.076Z" fill="#9FA221"/>
<path d="M383.422 116.016L382.636 121.934L400.424 113.206L399.142 108.966L383.422 116.016Z" fill="#7D8019"/>
<path d="M372.738 102.081C370.549 106.76 377.613 107.492 384.83 104.423C383.781 103.221 378.925 100.013 372.738 102.081Z" fill="#FFDF99"/>
<path d="M384.739 93.5L374.027 96.064L374.301 102.219C375.814 104.587 378.309 104.947 383.185 103.749L384.739 93.5" fill="#FFB288"/>
<path d="M385.001 104.507C385.001 104.507 385.001 104.507 385 104.507L395.653 99.3589C395.652 99.3589 395.652 99.3602 395.65 99.3602L385.001 104.507M372.738 102.082C372.768 102.072 372.797 102.063 372.826 102.054C372.797 102.063 372.768 102.072 372.738 102.082Z" fill="#D48F8F"/>
<path d="M367.999 110.279C367.822 110.141 367.662 109.984 367.518 109.809C365.919 107.864 365.605 104.263 365.713 100.989L372.736 102.081H372.738C372.586 102.405 372.479 102.711 372.414 102.997C371.677 103.337 371.131 103.871 370.849 104.667C370.151 106.633 369.242 108.524 367.999 110.279" fill="#7D8019"/>
<path d="M370.812 111.077C369.635 111.077 368.691 110.817 367.999 110.279C369.242 108.524 370.151 106.633 370.848 104.667C371.131 103.871 371.676 103.337 372.414 102.997C371.908 105.188 373.828 106.272 376.814 106.272C379.071 106.272 381.938 105.652 384.83 104.423L384.995 104.508L384.999 104.507C385 104.507 385 104.507 385 104.507L383.823 105.076L383.771 106.479C378.196 109.437 373.771 111.077 370.812 111.077M384.83 104.423C384.827 104.419 384.824 104.416 384.82 104.412C384.824 104.416 384.827 104.419 384.83 104.423Z" fill="#7D8019"/>
<path d="M384.818 104.409C384.813 104.403 384.809 104.397 384.804 104.392C384.809 104.397 384.814 104.403 384.818 104.409Z" fill="#D48F8F"/>
<path d="M384.82 104.412C384.819 104.411 384.819 104.41 384.818 104.41C384.819 104.41 384.82 104.411 384.82 104.412Z" fill="#D42F26"/>
<path d="M374.027 96.064L380.334 94.5533H380.335L374.027 96.064Z" fill="#D48F8F"/>
<path d="M383.771 106.479L383.824 105.076L385.001 104.507L395.65 99.3598C391.286 102.206 387.298 104.607 383.771 106.479" fill="#6C6F18"/>
<path d="M376.815 106.272C373.829 106.272 371.909 105.188 372.415 102.997C372.48 102.711 372.587 102.405 372.739 102.081C372.768 102.072 372.797 102.063 372.827 102.053C373.324 101.895 373.8 101.809 374.279 101.711L374.301 102.219C375.261 103.723 376.619 104.416 378.728 104.416C379.941 104.416 381.404 104.187 383.185 103.749L383.268 103.204C383.992 103.647 384.523 104.081 384.804 104.392C384.809 104.397 384.813 104.403 384.819 104.409C384.82 104.409 384.82 104.411 384.821 104.412C384.825 104.416 384.828 104.419 384.831 104.423C381.939 105.652 379.072 106.272 376.815 106.272" fill="#D47D56"/>
<path d="M378.727 104.416C376.618 104.416 375.261 103.723 374.301 102.219L374.278 101.711L374.027 96.0641L380.335 94.5534L384.554 94.7174L383.267 103.204L383.185 103.749C381.403 104.187 379.941 104.416 378.727 104.416" fill="#D4634C"/>
<path d="M381.584 22.4466C385.912 9.99598 361.517 2.7545e-05 361.517 2.7545e-05C361.517 2.7545e-05 376.474 13.3733 363.277 28.7493C345.285 49.716 346.01 77.9947 357.03 86.8213L388.808 96.0054C404.336 89.232 409.552 72.5827 404.013 61.8173C398.476 51.052 377.254 34.8973 381.584 22.4466Z" fill="#FF6A36"/>
<path d="M385.483 60.4307C380.176 71.1787 382.633 82.3054 388.808 96.0054C404.336 89.232 411.21 72.3814 405.672 61.6174C400.134 50.852 381.789 32.1947 383.793 22.608C384.469 19.3814 382.131 15.6907 380.275 13.6867C384.097 25.644 367.031 30.3467 385.483 60.4307" fill="#E24A2B"/>
<path d="M356.251 84.392C358.123 95.9093 361.22 102.432 381.275 99.4986C392.108 97.9133 400.775 85.2733 395.769 72.608C390.931 60.3653 381.281 54.156 369.992 56.9053C351.409 61.4293 355.033 76.8933 356.251 84.392" fill="#FFB882"/>
<path d="M385.745 56.9574C390.134 63.1921 379.698 73.1401 392.349 91.4907C392.349 91.4907 400.994 89.1854 400.31 77.0281C399.46 61.9001 385.745 56.9574 385.745 56.9574Z" fill="#E24A2B"/>
<path d="M390.57 92.9614C396.756 91.2828 400.584 87.4894 398.738 84.4334C396.893 81.3774 391.774 85.8028 390.816 87.4361C389.856 89.0694 390.57 92.9614 390.57 92.9614Z" fill="#FFB882"/>
<path d="M391.987 91.4707C395.565 90.4987 397.778 88.304 396.71 86.5347C395.641 84.7654 392.679 87.3267 392.124 88.2721C391.569 89.2174 391.987 91.4707 391.987 91.4707" fill="#EA7B59"/>
<path d="M391.561 91.6162C393.779 91.0149 395.153 89.6536 394.49 88.5576C393.827 87.4616 391.991 89.0483 391.647 89.6336C391.305 90.2203 391.561 91.6162 391.561 91.6162Z" fill="#FFB882"/>
<path d="M380.159 16.7707C379.563 25.0561 380.975 34.1001 384.831 41.6294C384.831 41.6294 375.377 33.8907 375.565 26.8014C375.753 19.7121 380.159 16.7707 380.159 16.7707Z" fill="#FF6A36"/>
<path d="M299.724 136.752C299.307 138.573 296.855 138.941 296.855 138.941C296.855 138.941 292.867 133.431 292.143 128.875C292.143 128.875 300.228 134.56 299.724 136.752" fill="#EF531C"/>
<path d="M303.388 126.964C302.971 128.785 300.52 129.155 300.52 129.155C300.52 129.155 296.531 123.644 295.807 119.088C295.807 119.088 303.893 124.772 303.388 126.964" fill="#EF531C"/>
<path d="M358.359 77.5923C358.612 74.5016 360.624 72.1349 362.852 72.3043C365.08 72.4736 366.682 75.1163 366.43 78.2056C366.176 81.295 364.315 82.2736 362.086 82.103C359.858 81.9336 358.107 80.6816 358.359 77.5923Z" fill="#FF6A36"/>
<path d="M373.388 77.6586C373.64 74.5693 375.652 72.2012 377.88 72.3706C380.109 72.5399 381.711 75.1826 381.457 78.2733C381.204 81.3626 379.341 82.3399 377.113 82.1706C374.885 82.0012 373.133 80.7493 373.388 77.6586Z" fill="#FF6A36"/>
<path d="M373.229 78.6401C373.321 75.3428 375.238 72.8308 377.51 73.0294C379.782 73.2294 381.551 76.0655 381.459 79.3641C381.369 82.6628 379.529 83.6908 377.257 83.4908C374.983 83.2921 373.138 81.9388 373.229 78.6401" fill="#FFFBDD"/>
<path d="M374.165 78.3656C374.061 76.5922 374.989 75.1082 376.235 75.0522C377.481 74.9962 378.576 76.3896 378.678 78.1629C378.782 79.9362 377.856 81.4189 376.61 81.4749C375.364 81.5309 374.269 80.1389 374.165 78.3656Z" fill="#3F7FA5"/>
<path d="M374.056 76.8786C374.016 76.1932 374.374 75.6213 374.856 75.5999C375.337 75.5786 375.761 76.1159 375.8 76.7999C375.84 77.4853 375.482 78.0585 375.001 78.0799C374.52 78.1025 374.097 77.5639 374.056 76.8786Z" fill="#FFFBDD"/>
<path d="M384.174 74.5615L383.234 75.1455C383.042 73.7362 380.219 67.3575 375.97 66.5615L376.518 65.5415C376.518 65.5415 383.284 67.8389 384.174 74.5615Z" fill="#B74941"/>
<path d="M357.98 78.5946C358.232 75.5053 360.244 73.1373 362.474 73.3066C364.702 73.4773 366.303 76.1199 366.051 79.2093C365.798 82.2999 363.936 83.2759 361.707 83.1066C359.479 82.9373 357.727 81.6853 357.98 78.5946Z" fill="#FFFBDD"/>
<path d="M358.888 78.5733C358.871 76.9173 359.879 75.4839 361.139 75.3706C362.4 75.2586 363.436 76.5079 363.453 78.1626C363.471 79.8186 362.463 81.2506 361.203 81.364C359.943 81.4773 358.905 80.2279 358.888 78.5733" fill="#3F7FA5"/>
<path d="M358.851 77.187C358.844 76.5483 359.233 75.9936 359.721 75.9496C360.208 75.9069 360.609 76.3896 360.615 77.0283C360.621 77.6683 360.232 78.2216 359.745 78.2643C359.259 78.3083 358.857 77.8256 358.851 77.187" fill="#FFFBDD"/>
<path d="M357.019 70.415L357.775 70.8057C358.177 69.6763 361.044 66.159 364.307 67.231L364.315 65.843C364.315 65.843 358.925 65.015 357.019 70.415Z" fill="#B74941"/>
<path d="M374.901 89.0321L364.353 89.2761C364.353 89.2761 365.435 93.3868 369.013 93.6588C373.081 93.9694 374.901 89.0321 374.901 89.0321Z" fill="#763224"/>
<path d="M373.872 89.4108L365.054 89.5655C365.054 89.5655 365.866 92.1682 368.988 92.3375C372.475 92.5255 373.872 89.4108 373.872 89.4108Z" fill="#FFFBDD"/>
<path d="M366.607 84.1429C367.008 82.9096 368.395 81.9989 368.395 81.9989L370.778 85.5736C368.454 87.1629 366.094 85.7189 366.607 84.1429" fill="#EA7B59"/>
<path d="M367.377 83.9496C367.628 82.9909 368.683 82.2389 368.683 82.2389L370.607 85.0949C368.832 86.1936 367.073 85.1056 367.377 83.9496Z" fill="#FFB882"/>
<path d="M368.366 95.6041C368.382 95.4094 369.116 95.3134 370.005 95.3894C370.896 95.4641 371.605 95.6841 371.589 95.8787C371.573 96.0734 370.838 96.1708 369.948 96.0948C369.058 96.0188 368.35 95.8001 368.366 95.6041Z" fill="#EA7B59"/>
<path d="M418.446 88.832C421.008 87.548 424.011 88.0494 425.388 86.4534C426.457 85.2094 424.988 80.9294 423.872 80.8294C422.756 80.7307 416.952 86.7814 416.952 86.7814L418.446 88.832Z" fill="#FFB882"/>
<path d="M418.634 85.2666C419.601 83.1119 420.04 78.9799 420.278 78.2279C420.517 77.4759 421.402 77.8679 421.43 80.0306C421.456 82.1919 420.846 82.7746 421.804 83.3186C422.86 83.9159 418.166 86.3079 418.634 85.2666" fill="#FFB882"/>
<path d="M423.757 82.6655C425.179 81.2562 428.581 77.9536 428.095 77.4949C427.609 77.0376 422.336 81.6909 422.336 81.6909L423.757 82.6655" fill="#FFB882"/>
<path d="M424.731 84.3975C426.373 83.2495 430.283 80.5694 429.882 80.0348C429.479 79.5014 423.498 83.1961 423.498 83.1961L424.731 84.3975Z" fill="#FFB882"/>
<path d="M424.291 87.188C426.147 86.4387 430.559 84.7067 430.289 84.0974C430.017 83.4867 423.359 85.74 423.359 85.74L424.291 87.188" fill="#FFB882"/>
<path d="M333.614 98.7815C331.278 98.9855 329.402 100.582 327.761 100.079C326.481 99.6855 325.67 96.1775 326.405 95.6428C327.141 95.1082 334.702 97.2602 334.702 97.2602L333.614 98.7815" fill="#FFB882"/>
<path d="M331.955 96.4495C330.358 95.3975 328.282 92.7881 327.794 92.3788C327.305 91.9708 326.855 92.6068 327.765 94.0801C328.671 95.5521 329.346 95.6908 328.911 96.4588C328.434 97.3055 332.726 96.9575 331.955 96.4495" fill="#FFB882"/>
<path d="M327.385 97.0415C325.82 96.5255 322.104 95.3441 322.249 94.8188C322.393 94.2948 327.957 95.7815 327.957 95.7815L327.385 97.0415Z" fill="#FFB882"/>
<path d="M327.334 98.4146C325.7 98.3239 321.828 98.1505 321.878 97.6212C321.93 97.0919 327.68 97.0852 327.68 97.0852L327.334 98.4146Z" fill="#FFB882"/>
<path d="M328.837 100.117C327.222 100.387 323.408 101.064 323.336 100.537C323.264 100.011 328.866 98.748 328.866 98.748L328.837 100.117" fill="#FFB882"/>
<path d="M251.154 143.161L241.809 144.38L245.299 132.589L251.154 143.161Z" fill="#F96D30"/>
<path d="M225.041 142.941L215.754 141.332L222.589 131.108L225.041 142.941Z" fill="#F96D30"/>
<path d="M222.285 142.695L245.09 190.646L247.254 190.457L229.754 139.521L222.285 142.695" fill="#FFB882"/>
<path d="M239.262 167.194L229.754 139.522L222.285 142.695L237.444 174.567C237.622 171.378 238.246 168.798 239.262 167.194" fill="#FF9566"/>
<path d="M235.945 139.518L252.183 189.799L254.332 189.796L243.685 136.968L235.945 139.518" fill="#FFB882"/>
<path d="M249.999 168.292L243.685 136.968L235.945 139.517L248.036 176.955C248.481 173.248 249.168 170.229 249.999 168.292" fill="#FF9566"/>
<path d="M249.086 108.448L273.249 133.682L274.311 133.24L252.102 105.416L249.086 108.448" fill="#FFB882"/>
<path d="M262.134 117.984L252.102 105.416L249.086 108.448L262.253 122.197C262.073 120.672 262.037 119.256 262.134 117.984" fill="#FF9566"/>
<path d="M219.764 100.885L188.436 116.351L188.537 117.496L221.749 104.673L219.764 100.885Z" fill="#FFB882"/>
<path d="M210.233 109.119L221.749 104.673L219.763 100.885L205.91 107.724C207.695 108 209.173 108.477 210.233 109.119Z" fill="#FF9566"/>
<path d="M228.216 162.544L238.896 160.856L236.77 151.395L237.925 151.484L240.746 160.884L251.184 159.787L246.589 134.839L220.033 131.856C220.033 131.856 216.388 140.497 228.216 162.544" fill="#9FA221"/>
<path d="M240.272 142.172C243.706 142.575 246.516 143.405 248.348 144.388L246.59 134.839L220.033 131.856C220.033 131.856 215.397 140.641 227.224 162.689L231.712 161.992C226.138 150.82 219.782 139.768 240.272 142.172" fill="#8D8F1D"/>
<path d="M241.072 149.191C239.398 149.224 237.149 150.151 235.02 149.888C235.554 150.988 236.821 152.307 237.293 153.723L236.77 151.395L237.925 151.484L240.316 161.119L242.576 160.692C241.045 157.196 240.549 152.269 241.072 149.191Z" fill="#8D8F1D"/>
<path d="M253.103 120.39L261.104 113.248C261.104 113.248 249.701 97.4683 247.281 97.967C244.864 98.467 246.123 111.127 246.863 112.464C247.603 113.802 253.103 120.39 253.103 120.39" fill="#FFE05C"/>
<path d="M245.876 103.282C245.832 107.098 245.645 112.108 246.075 112.884C246.815 114.222 253.103 120.39 253.103 120.39L255.665 118.103C251.505 112.652 246.651 106.192 245.876 103.282" fill="#FFCD50"/>
<path d="M215.72 141.343C224.68 134.255 247.605 139.967 251.154 143.162C251.154 143.162 247.402 113.52 250.265 103.459C253.125 93.3976 229.048 87.8523 223.193 103.782C217.338 119.711 215.72 141.343 215.72 141.343" fill="#EF531C"/>
<path d="M225.44 124.288C225.921 111.416 227.669 105.007 231.88 98.3001C227.67 100.147 225.106 98.5774 223.193 103.781C217.338 119.711 215.72 141.343 215.72 141.343C218.268 139.328 221.945 138.349 225.984 138.051C225.466 133.789 225.258 129.155 225.44 124.288Z" fill="#D94D1C"/>
<path d="M216.062 111.671L210.99 101.027C210.99 101.027 233.23 92.9429 235.836 94.4989C238.44 96.0549 229.232 105.944 227.833 106.819C226.432 107.694 216.062 111.671 216.062 111.671Z" fill="#FFE05C"/>
<path d="M214.427 108.235L216.131 112.496C216.131 112.496 226.432 107.693 227.832 106.819C228.139 106.627 228.831 105.988 229.68 105.113C224.464 106.279 217.005 107.736 214.427 108.235Z" fill="#FFCD50"/>
<path d="M234.843 94.0761C237.472 99.1014 247.064 106.209 249.697 98.9668C248.092 95.0428 241.343 92.0947 234.843 94.0761Z" fill="#FF5A5A"/>
<path d="M249.256 89.3789L240.103 86.3536L237.697 94.1882C239.249 97.1362 244.8 99.6736 247.281 97.9669L249.256 89.3789" fill="#FFB288"/>
<path d="M247.662 96.3096L249.255 89.3789L247.662 96.3096ZM234.903 94.0576C234.999 94.0296 235.095 94.0016 235.191 93.9749C235.097 94.0016 235.002 94.0282 234.906 94.0576C234.905 94.0576 234.905 94.0576 234.903 94.0576M237.91 93.4923L240.102 86.3536L237.91 93.4923Z" fill="#D48F8F"/>
<path d="M249.837 105.365C249.96 104.672 250.101 104.033 250.265 103.459C250.634 102.16 250.554 100.935 250.122 99.8226C250.834 100.509 251.621 101.355 252.433 102.273C251.71 103.405 250.825 104.456 249.837 105.365" fill="#D47E34"/>
<path d="M242.461 108.689C241.979 108.689 241.5 108.641 241.033 108.54C236.295 107.516 233.927 104.844 232.336 102.157C234.091 100.048 235.765 97.6868 236.192 96.1081C238.564 99.0895 242.575 102.055 245.725 102.055C247.436 102.056 248.892 101.183 249.697 98.9668C249.856 99.2401 249.995 99.5201 250.107 99.8081C250.112 99.8135 250.117 99.8188 250.123 99.8228C250.555 100.935 250.635 102.16 250.265 103.459C250.101 104.033 249.96 104.672 249.837 105.365C247.66 107.371 244.985 108.689 242.461 108.689M249.697 98.9668C249.693 98.9575 249.689 98.9481 249.685 98.9374C249.689 98.9481 249.693 98.9575 249.697 98.9668ZM249.68 98.9255C249.677 98.9201 249.676 98.9161 249.673 98.9107C249.676 98.9161 249.677 98.9201 249.68 98.9255ZM233.457 94.3921C233.917 94.2681 234.38 94.1601 234.844 94.0761C234.864 94.0694 234.884 94.0641 234.904 94.0574C234.905 94.0574 234.905 94.0574 234.907 94.0574C234.885 94.0641 234.864 94.0708 234.843 94.0761C234.883 94.1521 234.924 94.2281 234.967 94.3041C234.889 94.3014 234.808 94.3001 234.724 94.3001C234.361 94.3001 233.936 94.3321 233.457 94.3921" fill="#EF531C"/>
<path d="M232.336 102.157C230.672 99.3466 229.859 96.5199 228.069 95.5492C230.136 95.0026 232.023 94.5759 233.439 94.3973C233.444 94.3946 233.451 94.3933 233.457 94.3919C233.936 94.3319 234.361 94.2999 234.724 94.2999C234.808 94.2999 234.889 94.3012 234.967 94.3039C235.292 94.8906 235.708 95.4986 236.192 96.1079C235.765 97.6866 234.091 100.048 232.336 102.157" fill="#EF531C"/>
<path d="M245.725 102.055C242.575 102.055 238.564 99.0894 236.192 96.1081C235.708 95.4987 235.292 94.8907 234.967 94.304C234.924 94.228 234.883 94.152 234.843 94.076C234.864 94.0707 234.885 94.064 234.907 94.0574C235.003 94.028 235.097 94.0014 235.192 93.9747C236.1 93.7254 237.009 93.5774 237.907 93.504L237.911 93.4921L237.697 94.188C238.901 96.4774 242.516 98.5174 245.235 98.5174C246.017 98.5174 246.727 98.3481 247.281 97.9667L247.663 96.3094V96.3133C248.577 97.0853 249.275 97.968 249.673 98.9107C249.676 98.916 249.677 98.9201 249.68 98.9254C249.681 98.9294 249.684 98.9334 249.685 98.9374C249.689 98.948 249.693 98.9574 249.697 98.9667C248.892 101.183 247.436 102.056 245.725 102.055" fill="#D43232"/>
<path d="M245.235 98.5176C242.516 98.5176 238.901 96.4775 237.697 94.1882L237.911 93.4923L240.103 86.3536L249.256 89.3789L247.663 96.3096L247.281 97.9669C246.727 98.3483 246.017 98.5176 245.235 98.5176" fill="#EF531C"/>
<path d="M273.057 29.3829C273.057 29.3829 273.807 35.0429 272.723 36.0269C271.641 37.0123 269.903 34.8869 266.757 29.4216C261.542 20.3656 246.738 17.2816 246.738 17.2816C249.374 19.6429 248.037 26.1803 246.178 26.3709C241.498 26.8523 237.114 20.4136 231.402 20.5349C233.934 23.6709 234.267 35.4683 228.99 41.1549C223.714 46.8416 222.195 56.7363 222.302 64.2843C222.409 71.8336 227.729 85.5336 238.121 89.8003L267.169 85.639C291.165 59.6883 273.057 29.3829 273.057 29.3829" fill="#EF531C"/>
<path d="M245.3 76.1136C249.436 46.2589 235.37 22.4309 231.402 20.5349C232.964 28.2483 231.956 36.7816 227.998 40.2723C222.182 45.4056 221.144 56.7722 221.25 64.3216C221.357 71.8709 227.729 85.5336 238.121 89.8003L245.3 76.1136" fill="#D24716"/>
<path d="M272.678 69.824C273.603 56.0587 271.935 46.9947 250.665 47.7587C234.373 48.3427 227.517 59.1333 228.714 72.876C229.911 86.62 239.558 96.1493 251.057 96.9373C272.053 98.3787 272.069 78.9093 272.678 69.824" fill="#F8C6A4"/>
<path d="M231.839 81.7759C237.735 77.8972 234.322 52.4519 244.794 48.2625C244.794 48.2625 237.735 42.8319 229.357 52.9946C220.979 63.1572 231.839 81.7759 231.839 81.7759" fill="#D24716"/>
<path d="M232.556 82.2065C224.915 85.0679 222.839 77.6398 225.097 73.4212C228.236 67.5532 233.749 81.7599 232.556 82.2065Z" fill="#FFB882"/>
<path d="M230.413 80.4696C226.379 81.9789 225.283 78.0589 226.475 75.8336C228.131 72.7376 231.042 80.2336 230.413 80.4696Z" fill="#EA7B59"/>
<path d="M230.127 80.7748C228.047 81.5548 227.48 79.5321 228.095 78.3828C228.949 76.7841 230.452 80.6548 230.127 80.7748Z" fill="#FFB882"/>
<path d="M250.977 71.8708C251.359 68.8602 249.949 66.1309 247.832 65.7749C245.715 65.4175 243.688 67.5695 243.307 70.5788C242.927 73.5882 244.472 74.9548 246.591 75.3122C248.709 75.6682 250.596 74.8802 250.977 71.8708" fill="#FFFBDD"/>
<path d="M250.156 71.3988C250.5 69.8162 249.858 68.2549 248.721 67.9095C247.582 67.5642 246.38 68.5655 246.034 70.1482C245.688 71.7309 246.332 73.2922 247.469 73.6389C248.608 73.9829 249.81 72.9815 250.156 71.3988Z" fill="#672316"/>
<path d="M250.465 70.0789C250.6 69.4669 250.35 68.8643 249.91 68.731C249.47 68.5976 249.006 68.9843 248.873 69.595C248.74 70.207 248.988 70.8096 249.428 70.9429C249.868 71.0763 250.332 70.6896 250.465 70.0789Z" fill="#FFFBDD"/>
<path d="M242.149 59.2252L243.017 61.3306C244.128 60.1092 250.292 57.5586 254.788 59.6586L255.256 55.7479C255.256 55.7479 247.417 53.3866 242.149 59.2252Z" fill="#D24716"/>
<path d="M268.247 73.9935C268.627 71.0149 267.246 68.3923 265.162 68.1389C263.076 67.8829 261.076 70.0909 260.696 73.0709C260.314 76.0482 261.834 77.3242 263.919 77.5789C266.005 77.8336 267.866 76.9722 268.247 73.9935Z" fill="#FFFBDD"/>
<path d="M267.417 73.8029C267.762 72.2362 267.118 70.6882 265.981 70.3455C264.841 70.0029 263.64 70.9948 263.294 72.5629C262.949 74.1282 263.593 75.6775 264.73 76.0202C265.87 76.3629 267.072 75.3709 267.417 73.8029Z" fill="#672316"/>
<path d="M267.725 72.4946C267.859 71.8892 267.61 71.2919 267.17 71.1586C266.73 71.0266 266.267 71.4092 266.133 72.0146C265.999 72.6212 266.249 73.2185 266.689 73.3519C267.127 73.4825 267.593 73.0999 267.725 72.4946" fill="#FFFBDD"/>
<path d="M271.981 65.4761L270.471 67.0361C270.281 65.6441 267.342 61.5774 263.439 62.0374L264.869 58.5121C264.869 58.5121 271.097 58.8334 271.981 65.4761" fill="#D24716"/>
<path d="M247.629 83.0882L259.388 85.8536C259.388 85.8536 257.221 90.3149 253.15 89.7843C248.522 89.1803 247.629 83.0882 247.629 83.0882" fill="#763224"/>
<path d="M248.694 83.7639L258.537 86.0199C258.537 86.0199 257.021 88.8146 253.485 88.2719C249.536 87.6666 248.694 83.7639 248.694 83.7639" fill="#FFFBDD"/>
<path d="M258.054 79.4322C257.889 77.9229 256.549 76.5509 256.549 76.5509L253.049 80.0909C255.283 82.4629 258.263 81.3615 258.054 79.4322" fill="#EA7B59"/>
<path d="M257.236 79.0296C257.177 77.8709 256.17 76.7589 256.17 76.7589L253.354 79.5843C255.086 81.2616 257.308 80.4282 257.236 79.0296Z" fill="#FFB882"/>
<path d="M253.423 92.1679C253.45 91.9399 252.651 91.6572 251.636 91.5345C250.622 91.4119 249.778 91.4959 249.75 91.7239C249.722 91.9505 250.523 92.2345 251.538 92.3572C252.551 92.4799 253.395 92.3959 253.423 92.1679" fill="#EA7B59"/>
<path d="M192.692 115.84C190.799 117.022 189.896 119.186 188.287 119.467C187.033 119.687 184.832 117.06 185.223 116.29C185.616 115.519 192.957 114.082 192.957 114.082L192.692 115.84" fill="#FFB882"/>
<path d="M190.278 114.579C188.47 114.376 185.583 113.059 184.993 112.924C184.401 112.788 184.295 113.522 185.701 114.379C187.107 115.236 187.738 115.063 187.702 115.902C187.662 116.824 191.153 114.678 190.278 114.579Z" fill="#FFB882"/>
<path d="M186.657 117.053C185.108 117.292 181.445 117.892 181.342 117.385C181.24 116.879 186.598 115.739 186.598 115.739L186.657 117.053" fill="#FFB882"/>
<path d="M187.207 118.24C185.782 118.869 182.422 120.392 182.237 119.921C182.053 119.451 186.926 116.964 186.926 116.964L187.207 118.24" fill="#FFB882"/>
<path d="M189.217 119.035C187.964 119.961 185.02 122.181 184.732 121.767C184.444 121.351 188.651 117.861 188.651 117.861L189.217 119.035Z" fill="#FFB882"/>
<path d="M270.553 131.038C271.777 132.504 271.929 134.495 273.165 135.159C274.126 135.676 276.625 134.155 276.513 133.428C276.399 132.7 270.809 129.546 270.809 129.546L270.553 131.038Z" fill="#FFB882"/>
<path d="M272.856 130.675C274.384 131.003 277.089 130.723 277.607 130.775C278.124 130.825 278.013 131.445 276.639 131.756C275.264 132.065 274.795 131.755 274.6 132.44C274.385 133.197 272.119 130.517 272.856 130.675Z" fill="#FFB882"/>
<path d="M275.14 133.654C276.337 134.268 279.158 135.745 279.378 135.365C279.598 134.984 275.542 132.609 275.542 132.609L275.14 133.654" fill="#FFB882"/>
<path d="M274.373 134.461C275.364 135.356 277.69 137.497 277.968 137.168C278.245 136.839 274.944 133.509 274.944 133.509L274.373 134.461" fill="#FFB882"/>
<path d="M272.522 134.557C273.293 135.644 275.094 138.236 275.441 137.979C275.786 137.721 273.3 133.765 273.3 133.765L272.522 134.557" fill="#FFB882"/>
<path d="M409.594 236.021C417.501 236.521 423.417 240.324 423.417 240.324C412.126 243.424 402.318 241.704 398.829 240.904C398.829 240.904 401.721 235.525 409.594 236.021" fill="#C42D51"/>
<path d="M444.33 232.696C427.926 227.476 426.682 218.776 427.18 209.586C427.678 200.386 411.024 166.091 417.491 151.18C423.95 136.271 440.848 127.819 450.79 134.531C460.731 141.242 458.992 145.464 458.992 145.464C458.992 145.464 478.948 146.231 480.614 160.378C483.595 185.726 461.209 209.355 454.765 211.076C443.299 214.136 444.33 232.696 444.33 232.696" fill="#B54E1F"/>
<path d="M478.825 155.006C472.567 163.406 460.595 169.09 446.845 169.09C433.998 169.09 422.699 164.123 416.169 156.616C414.419 173.183 427.622 201.376 427.179 209.586C426.681 218.776 427.925 227.476 444.329 232.696C444.329 232.696 443.298 214.136 454.765 211.076C461.209 209.355 483.594 185.726 480.613 160.378C480.369 158.312 479.727 156.54 478.825 155.006" fill="#B54E1F"/>
<path d="M427.179 209.586C426.681 218.776 427.925 227.476 444.329 232.696C444.329 232.696 435.67 213.6 447.563 191.672C451.893 183.692 451.825 174.176 452.521 168.752C450.669 168.966 448.779 169.09 446.845 169.09C439.394 169.09 432.471 167.41 426.69 164.543C422.979 167.984 420.383 172.316 418.651 177.12C422.046 190.599 427.466 204.274 427.179 209.586" fill="#8B3C18"/>
<path d="M411.223 196.296C410.548 193.787 402.607 171.633 401.267 168.077L402.103 167.721C402.103 167.721 415.456 192.82 414.676 195.3C413.896 197.772 411.805 198.453 411.223 196.296Z" fill="#FFCD9C"/>
<path d="M405.414 230.831C407.054 244.639 420.756 265.547 420.756 265.547L419.549 265.96C419.549 265.96 402.737 245.889 401.844 231.868C401.688 229.405 404.758 225.295 405.414 230.831" fill="#FFCD9C"/>
<path d="M407.108 247.46C408.44 247.546 409.873 247.943 411.332 248.607C408.542 242.714 406.057 236.231 405.414 230.831C404.758 225.295 401.688 229.406 401.844 231.868C402.154 236.704 404.353 242.256 407.108 247.46Z" fill="#FFAE85"/>
<path d="M412.448 226.304C413.664 240.413 411.367 271.375 411.367 271.375L410.111 271.604C410.111 271.604 409.144 241.565 408.423 228.893C407.596 220.917 412.033 221.448 412.448 226.304Z" fill="#FFCD9C"/>
<path d="M409.132 244.303C409.309 244.227 409.493 244.179 409.684 244.163C410.685 244.083 411.701 244.868 412.653 246.316C412.867 238.949 412.896 231.488 412.448 226.304C412.033 221.448 407.596 220.917 408.423 228.893C408.648 232.827 408.893 238.437 409.132 244.303" fill="#FFAE85"/>
<path d="M398.917 240.965C398.917 240.965 408.633 235.567 423.426 240.297C423.426 240.297 410.982 221.143 418.798 210.851C422.682 205.732 423.765 200.717 422.79 197.904C422.474 196.988 416.028 191.689 413.632 192.869C411.241 194.044 392.365 210.217 398.917 240.965" fill="#EF531C"/>
<path d="M417.466 193.766C415.522 193.916 412.585 197.006 412.585 197.006L422.176 197.176L417.466 193.766Z" fill="#FFE6EB"/>
<path d="M415.772 202.837C410.462 212.637 412.631 231.489 415.275 238.589C417.768 238.851 420.492 239.385 423.416 240.325C423.416 240.325 410.97 221.168 418.787 210.875C422.672 205.757 423.755 200.747 422.778 197.928C422.67 197.609 419.658 195.66 415.772 202.837Z" fill="#DB4D1B"/>
<path d="M421.602 205.372C423.163 201.688 423.127 198.407 421.523 198.04C419.919 197.674 417.351 200.36 415.793 204.043C414.233 207.726 414.267 211.008 415.874 211.374C417.478 211.742 420.043 209.054 421.602 205.372Z" fill="#FFE6EB"/>
<path d="M421.298 205.3C422.691 202.004 422.662 199.071 421.224 198.74C419.79 198.412 417.494 200.816 416.097 204.111C414.702 207.408 414.734 210.347 416.17 210.676C417.606 211.004 419.9 208.597 421.298 205.3Z" fill="#FFAE85"/>
<path d="M421.721 198.951C424.064 200.045 445.592 209.327 449.154 210.587L448.56 211.207C448.56 211.207 420.792 204.564 419.398 202.377C418.002 200.188 419.705 198.009 421.721 198.951" fill="#FFCD9C"/>
<path d="M425.535 204.625C425.949 203.405 427.659 202.744 430.135 202.629C425.981 200.836 422.574 199.351 421.721 198.951C419.705 198.009 417.367 200.847 418.761 203.036C419.146 203.641 422.175 203.992 425.443 205.137C425.449 204.961 425.481 204.792 425.535 204.625Z" fill="#FFAE85"/>
<path d="M411.983 271.833H406.495C406.495 271.833 409.643 269.472 410.48 269.542C411.316 269.612 411.983 271.833 411.983 271.833Z" fill="#F2C0D5"/>
<path d="M421.405 264.477L420.881 269.941C420.881 269.941 418.812 265.551 418.96 264.727C419.113 263.899 421.405 264.477 421.405 264.477Z" fill="#F2C0D5"/>
<path d="M413.877 196.557L420.056 190.176L423.346 192.769L421.205 196.785L413.877 196.557" fill="#FFCD9C"/>
<path d="M398.649 239.627C398.733 240.08 398.432 241.041 398.531 241.505C398.531 241.505 408.623 235.592 423.418 240.324C423.418 240.324 423.096 239.828 422.595 238.963C409.635 235.024 400.621 238.687 398.649 239.627Z" fill="#FFE6EB"/>
<path d="M414.955 238.557C417.534 238.804 420.991 239.733 424.043 240.708C424.043 240.708 423.095 239.828 422.594 238.963C419.798 238.113 417.199 237.629 414.801 237.385C414.887 237.771 414.939 238.156 414.955 238.557" fill="#EFC7D0"/>
<path d="M416.925 193.409H416.924L420.056 190.176L416.925 193.409ZM414.132 192.72C413.8 191.773 413.338 190.629 412.789 189.357C412.826 189.322 412.862 189.297 412.896 189.282C413.417 190.582 413.861 191.751 414.174 192.715C414.16 192.716 414.145 192.719 414.132 192.72" fill="#DDAAA0"/>
<path d="M411.354 194.616C411.381 192.186 412.259 189.844 412.789 189.358C413.339 190.63 413.8 191.774 414.132 192.72C413.951 192.746 413.784 192.795 413.632 192.87C413.245 193.059 412.426 193.642 411.354 194.616" fill="#DD8962"/>
<path d="M417.087 200.689C412.531 200.608 411.322 197.548 411.354 194.616C412.426 193.641 413.245 193.059 413.631 192.869C413.783 192.795 413.95 192.745 414.131 192.72C414.145 192.719 414.16 192.716 414.174 192.715C414.177 192.725 414.181 192.735 414.184 192.745C414.27 192.736 414.358 192.731 414.45 192.731C415.152 192.731 416.009 193.005 416.901 193.433L416.924 193.409H416.925L416.185 194.173C414.445 195.048 412.585 197.005 412.585 197.005L422.175 197.176H422.171C422.477 197.481 422.686 197.732 422.753 197.883C422.638 197.736 422.195 197.448 421.503 197.448C420.485 197.448 418.926 198.072 417.087 200.689M422.893 198.3C422.858 198.172 422.821 198.048 422.778 197.928C422.821 198.048 422.858 198.172 422.893 198.3ZM422.175 197.176L421.325 196.56L421.385 196.447C421.686 196.708 421.946 196.945 422.159 197.163L422.175 197.176" fill="#D43742"/>
<path d="M422.176 197.176L412.585 197.006C412.585 197.006 414.445 195.048 416.185 194.174L413.877 196.558L421.205 196.786L421.325 196.56L422.176 197.176" fill="#DD9A94"/>
<path d="M417.276 200.692C417.213 200.692 417.151 200.691 417.088 200.689C418.927 198.072 420.485 197.448 421.504 197.448C422.196 197.448 422.639 197.736 422.753 197.883C422.753 197.884 422.753 197.885 422.755 197.887L422.779 197.928C422.821 198.048 422.859 198.172 422.893 198.3C422.995 198.688 423.06 199.113 423.092 199.565H423.093C422.924 199.491 422.767 199.421 422.623 199.357C422.444 198.64 422.077 198.167 421.524 198.04C421.425 198.017 421.324 198.007 421.219 198.007C420.197 198.007 418.879 199.044 417.676 200.684C417.54 200.689 417.407 200.692 417.276 200.692" fill="#C22A3B"/>
<path d="M417.676 200.684C418.878 199.044 420.197 198.007 421.218 198.007C421.324 198.007 421.425 198.017 421.524 198.04C422.077 198.167 422.444 198.64 422.623 199.357C422.215 199.176 421.908 199.037 421.721 198.951C421.672 198.927 421.621 198.905 421.572 198.885C421.466 198.819 421.352 198.769 421.225 198.74C421.138 198.72 421.046 198.711 420.952 198.711C420.884 198.711 420.814 198.715 420.742 198.725C420.174 198.732 419.68 198.989 419.345 199.404C419.3 199.445 419.254 199.488 419.21 199.533C418.852 199.837 418.485 200.217 418.126 200.66C417.973 200.671 417.824 200.679 417.676 200.684" fill="#DD9A94"/>
<path d="M418.126 200.66C418.485 200.217 418.851 199.838 419.21 199.534C418.911 199.838 418.669 200.213 418.517 200.627C418.385 200.64 418.254 200.651 418.126 200.66M421.571 198.885C421.293 198.776 421.022 198.726 420.765 198.726C420.758 198.726 420.75 198.726 420.742 198.726C420.814 198.715 420.883 198.711 420.951 198.711C421.046 198.711 421.138 198.72 421.225 198.74C421.351 198.77 421.466 198.819 421.571 198.885" fill="#DD7453"/>
<path d="M423.097 199.568C422.446 199.281 421.973 199.068 421.721 198.951C421.449 198.823 421.17 198.765 420.895 198.765C420.333 198.765 419.787 199.009 419.345 199.404C419.679 198.989 420.174 198.732 420.742 198.725C420.75 198.725 420.758 198.725 420.765 198.725C421.022 198.725 421.293 198.776 421.571 198.885C421.621 198.905 421.671 198.927 421.721 198.951C421.907 199.037 422.214 199.176 422.622 199.357C422.766 199.421 422.923 199.491 423.093 199.565L423.097 199.568" fill="#DD8962"/>
<path d="M418.517 200.627C418.669 200.214 418.911 199.838 419.21 199.534C419.254 199.488 419.299 199.446 419.345 199.404C419.787 199.01 420.333 198.766 420.895 198.766C421.17 198.766 421.449 198.823 421.721 198.951C421.973 199.068 422.446 199.282 423.097 199.568L423.109 199.576C421.335 200.16 419.817 200.495 418.517 200.627" fill="#DD7453"/>
<path d="M421.205 196.785L413.877 196.557L416.185 194.173L416.925 193.409L420.056 190.176L423.346 192.769L421.385 196.445C421.385 196.445 421.385 196.445 421.385 196.446L421.325 196.56L421.205 196.785Z" fill="#DD8962"/>
<path d="M420.105 192.425C414.249 185.936 404.961 171.769 421.468 154.897C437.976 138.024 451.672 143.207 460.933 153.469C470.192 163.735 473.489 177.717 457.536 192.939C441.576 208.167 425.959 198.917 420.105 192.425" fill="#FFCD9C"/>
<path d="M458.777 150.236C450.297 148.487 448.444 162.599 450.808 172.883C453.755 185.701 443.379 189.186 436.124 194.128C433.887 195.656 439.475 199.492 437.336 200.749C437.336 200.749 467.02 203.913 471.812 186.519C476.605 169.123 471.14 152.782 458.777 150.236" fill="#B54E1F"/>
<path d="M438.845 202.004C444.481 201.683 449.643 198.793 445.347 195.824C441.054 192.853 430.787 193.872 431.062 196.757C431.331 199.645 434.69 202.24 438.845 202.004" fill="#FFCD9C"/>
<path d="M437.94 200.748C441.29 200.556 444.358 198.833 441.808 197.073C439.254 195.307 433.15 195.913 433.312 197.629C433.473 199.348 435.47 200.891 437.94 200.748Z" fill="#EF8F6F"/>
<path d="M434.909 199.169C436.969 199.279 438.89 198.416 437.365 197.139C435.838 195.86 432.08 195.819 432.138 196.9C432.2 197.987 433.389 199.089 434.909 199.169" fill="#FFCD9C"/>
<path d="M479.323 157.524C479.121 149.156 466.107 148.22 460.054 148.22C453.999 148.22 449.255 155.003 449.455 163.371C449.658 171.739 454.73 178.519 460.785 178.519C466.837 178.519 479.522 165.889 479.323 157.524Z" fill="#B54E1F"/>
<path d="M408.25 211.971C408.749 210.143 408.056 208.523 406.702 208.352C405.348 208.184 403.848 209.529 403.346 211.359C402.849 213.187 403.544 214.808 404.896 214.977C406.25 215.144 407.753 213.799 408.25 211.971Z" fill="#FFF6F3"/>
<path d="M407.373 207.768L406.899 207.601L407.654 205.421L408.125 205.581L407.373 207.768" fill="#FF839B"/>
<path d="M408.89 209.169L408.702 208.709L410.862 207.832L411.05 208.295L408.89 209.169" fill="#FF839B"/>
<path d="M401.739 214.909L401.389 214.552L402.323 213.644L402.67 214.005L401.739 214.909" fill="#FF839B"/>
<path d="M402.677 211.421L402.015 211.391L402.037 210.889L402.7 210.924L402.677 211.421Z" fill="#FF839B"/>
<path d="M404.966 218.051L404.469 218.011L404.653 215.708L405.149 215.748L404.966 218.051" fill="#FF839B"/>
<path d="M403.712 209.306L403.008 209.012L403.197 208.554L403.904 208.843L403.712 209.306" fill="#FF839B"/>
<path d="M411.043 213.182L408.813 212.646L408.932 212.158L411.16 212.696L411.043 213.182Z" fill="#FF839B"/>
<path d="M408.799 216.948L407.613 214.995L408.041 214.735L409.221 216.687L408.799 216.948" fill="#FF839B"/>
<path d="M404.179 165.713C404.423 164.996 404.487 164.095 404.217 163.889C403.987 163.712 403.941 164.387 403.705 164.834C403.495 165.238 403.429 165.383 403.33 165.289C403.269 165.229 403.441 164.633 403.609 163.96C403.821 163.115 403.839 162.489 403.57 162.289C403.305 162.115 403.29 162.731 403.025 163.443C402.791 164.065 402.725 164.372 402.458 164.184C402.33 164.104 402.441 163.649 402.491 162.887C402.549 162.017 402.405 161.4 402.181 161.317C401.857 161.207 402.063 161.704 401.878 162.644C401.638 163.899 401.751 164.308 401.207 164.688C400.703 165.036 400.645 162.461 400.141 162.665C399.481 162.944 400.701 167.763 401.527 168.295C402.721 169.062 403.401 167.988 404.179 165.713" fill="#FFCD9C"/>
<path d="M448.661 213.875C449.1 214.5 449.786 215.079 450.114 214.988C450.392 214.904 449.875 214.467 449.653 214.014C449.448 213.608 449.37 213.468 449.505 213.442C449.59 213.428 449.971 213.92 450.417 214.452C450.973 215.124 451.465 215.506 451.788 215.406C452.082 215.295 451.597 214.92 451.179 214.287C450.808 213.73 450.605 213.494 450.913 213.388C451.055 213.332 451.353 213.692 451.942 214.183C452.612 214.743 453.192 214.99 453.391 214.858C453.671 214.666 453.15 214.535 452.498 213.831C451.624 212.895 451.226 212.743 451.244 212.087C451.257 211.468 453.373 212.944 453.504 212.415C453.67 211.716 449.054 209.862 448.138 210.212C446.814 210.723 447.281 211.907 448.661 213.875" fill="#FFCD9C"/>
<path d="M434.271 167.342C437.408 165.534 440.873 165.702 442.008 167.702C443.144 169.704 441.525 172.791 438.385 174.594C435.256 176.396 433.921 175.011 432.78 173.007C431.644 171.003 431.137 169.14 434.271 167.342Z" fill="#AF6345"/>
<path d="M427.284 156.49C430.215 154.488 433.593 154.283 434.828 156.033C436.056 157.792 434.683 160.837 431.753 162.844C428.82 164.85 427.436 163.692 426.2 161.936C424.964 160.183 424.355 158.497 427.284 156.49" fill="#AF6345"/>
<path d="M434.688 159.528L436.256 159.579L436.948 158.224L434.971 158.533L434.688 159.528Z" fill="#AF6345"/>
<path d="M434.588 157.495L436.201 156.815L436.116 155.509L434.3 156.637L434.588 157.495Z" fill="#AF6345"/>
<path d="M433.335 155.454L434.511 154.176L433.607 153.322L432.515 155.006L433.335 155.454" fill="#AF6345"/>
<path d="M441.784 170.77L443.407 170.81L444.088 169.452L442.048 169.778L441.784 170.77" fill="#AF6345"/>
<path d="M441.613 168.747L443.277 168.055L443.151 166.759L441.296 167.895L441.613 168.747" fill="#AF6345"/>
<path d="M440.265 166.721L441.447 165.443L440.487 164.599L439.396 166.288L440.265 166.721Z" fill="#AF6345"/>
<path d="M433.863 167.687C436.593 166.119 439.711 166.428 440.821 168.385C441.93 170.343 440.614 173.2 437.886 174.769C435.151 176.339 433.893 174.956 432.779 173.007C431.674 171.048 431.137 169.257 433.863 167.687Z" fill="#FFF9E9"/>
<path d="M426.768 156.656C429.321 154.908 432.423 154.965 433.695 156.769C434.972 158.581 433.937 161.464 431.381 163.212C428.825 164.959 427.456 163.719 426.176 161.909C424.907 160.099 424.212 158.401 426.768 156.656Z" fill="#FFF9E9"/>
<path d="M433.338 168.334C434.448 167.455 435.882 167.35 436.538 168.104C437.193 168.858 436.824 170.183 435.714 171.055C434.601 171.938 433.172 172.039 432.512 171.288C431.86 170.53 432.228 169.21 433.338 168.334Z" fill="#5795AA"/>
<path d="M426.578 157.144C427.723 156.357 429.11 156.377 429.677 157.18C430.243 157.981 429.777 159.271 428.629 160.055C427.482 160.839 426.094 160.823 425.529 160.015C424.962 159.212 425.43 157.929 426.578 157.144" fill="#5795AA"/>
<path d="M427.161 157.973C427.656 157.631 428.254 157.637 428.496 157.989C428.744 158.333 428.54 158.887 428.045 159.227C427.549 159.565 426.95 159.558 426.71 159.21C426.46 158.861 426.666 158.307 427.161 157.973Z" fill="#7DC5D8"/>
<path d="M434.012 169.107C434.492 168.727 435.112 168.683 435.395 169.008C435.678 169.335 435.514 169.899 435.039 170.28C434.559 170.659 433.94 170.704 433.658 170.379C433.376 170.055 433.535 169.485 434.012 169.107Z" fill="#7DC5D8"/>
<path d="M435.195 150.992C438.127 151.376 439.379 153.66 439.353 154.307L440.842 153.909C440.882 152.748 439.19 150.26 435.931 149.833L435.195 150.992Z" fill="#AD5645"/>
<path d="M445.509 163.024C447.521 164.844 447.216 168.209 446.845 168.981L448.194 169.184C448.853 167.793 448.934 163.973 446.701 161.956L445.509 163.024" fill="#AD5645"/>
<path d="M427.071 167.65L426.94 167.794C426.213 168.43 425.047 168.254 424.339 167.406C424.056 167.068 423.897 166.672 423.844 166.284C423.257 166.94 423.277 168.031 423.935 168.819C424.64 169.67 425.805 169.839 426.533 169.204C426.969 168.824 427.151 168.24 427.071 167.65" fill="#EF8F6F"/>
<path d="M419.273 169.591L424.209 176.165C424.209 176.165 418.89 180.612 416.803 177.023C414.715 173.435 419.273 169.591 419.273 169.591" fill="#512E26"/>
<path d="M423.436 175.956C421.854 177.275 418.628 177.912 417.561 176.661C416.49 175.405 417.594 172.251 419.462 170.665L423.436 175.956Z" fill="#FFF9E9"/>
<path d="M0 271.498H532.175C532.175 271.498 397.044 288.518 262.044 288.518C127.043 288.518 0 271.498 0 271.498Z" fill="#B54E1F"/>
</svg>
